<mxfile host="Electron" agent="Mozilla/5.0 (Windows NT 10.0; Win64; x64) AppleWebKit/537.36 (KHTML, like Gecko) draw.io/24.7.5 Chrome/126.0.6478.183 Electron/31.3.0 Safari/537.36" version="24.7.5">
  <diagram id="SVFWI7yHhve9LLFDnVji" name="Page-1">
    <mxGraphModel dx="2096" dy="-794" grid="1" gridSize="10" guides="1" tooltips="1" connect="1" arrows="1" fold="1" page="1" pageScale="1" pageWidth="583" pageHeight="827" math="0" shadow="0">
      <root>
        <mxCell id="0" />
        <mxCell id="1" parent="0" />
        <mxCell id="Xs9r0mdP92HLTO9vmSDR-1" value="HCS read operations caching" style="swimlane;whiteSpace=wrap;html=1;direction=east;" parent="1" vertex="1">
          <mxGeometry x="-440" y="1790" width="480" height="450" as="geometry" />
        </mxCell>
        <mxCell id="Xs9r0mdP92HLTO9vmSDR-3" value="HCS Message Resolver" style="html=1;" parent="Xs9r0mdP92HLTO9vmSDR-1" vertex="1">
          <mxGeometry x="307" y="68" width="150" height="80" as="geometry" />
        </mxCell>
        <mxCell id="K5Qhf0zq-DthpX8qMDTY-22" style="edgeStyle=orthogonalEdgeStyle;rounded=0;orthogonalLoop=1;jettySize=auto;html=1;entryX=1;entryY=0.5;entryDx=0;entryDy=0;" parent="Xs9r0mdP92HLTO9vmSDR-1" source="Xs9r0mdP92HLTO9vmSDR-2" target="K5Qhf0zq-DthpX8qMDTY-8" edge="1">
          <mxGeometry relative="1" as="geometry" />
        </mxCell>
        <mxCell id="Xs9r0mdP92HLTO9vmSDR-2" value="&lt;div&gt;In-memory Cache&lt;br&gt;implementation (default)&lt;br&gt;&lt;/div&gt;" style="html=1;" parent="Xs9r0mdP92HLTO9vmSDR-1" vertex="1">
          <mxGeometry x="307" y="230" width="150" height="80" as="geometry" />
        </mxCell>
        <mxCell id="Xs9r0mdP92HLTO9vmSDR-31" style="edgeStyle=orthogonalEdgeStyle;rounded=0;orthogonalLoop=1;jettySize=auto;html=1;entryX=0.5;entryY=0;entryDx=0;entryDy=0;startArrow=none;startFill=0;endArrow=classic;endFill=1;dashed=1;" parent="Xs9r0mdP92HLTO9vmSDR-1" source="Xs9r0mdP92HLTO9vmSDR-2" target="K5Qhf0zq-DthpX8qMDTY-6" edge="1">
          <mxGeometry relative="1" as="geometry">
            <mxPoint x="161" y="259.99999999999955" as="targetPoint" />
          </mxGeometry>
        </mxCell>
        <mxCell id="Xs9r0mdP92HLTO9vmSDR-33" style="edgeStyle=orthogonalEdgeStyle;rounded=0;orthogonalLoop=1;jettySize=auto;html=1;startArrow=none;startFill=0;entryX=1;entryY=0.75;entryDx=0;entryDy=0;exitX=0;exitY=0.75;exitDx=0;exitDy=0;endArrow=classic;endFill=1;" parent="Xs9r0mdP92HLTO9vmSDR-1" source="Xs9r0mdP92HLTO9vmSDR-3" target="K5Qhf0zq-DthpX8qMDTY-7" edge="1">
          <mxGeometry relative="1" as="geometry">
            <mxPoint x="148" y="108" as="targetPoint" />
          </mxGeometry>
        </mxCell>
        <mxCell id="K5Qhf0zq-DthpX8qMDTY-6" value="Cache Interface" style="html=1;dashed=1;" parent="Xs9r0mdP92HLTO9vmSDR-1" vertex="1">
          <mxGeometry x="307" y="350" width="150" height="80" as="geometry" />
        </mxCell>
        <mxCell id="K5Qhf0zq-DthpX8qMDTY-23" value="" style="edgeStyle=orthogonalEdgeStyle;rounded=0;orthogonalLoop=1;jettySize=auto;html=1;startArrow=classic;startFill=1;endArrow=classic;endFill=1;" parent="Xs9r0mdP92HLTO9vmSDR-1" source="K5Qhf0zq-DthpX8qMDTY-7" target="K5Qhf0zq-DthpX8qMDTY-8" edge="1">
          <mxGeometry relative="1" as="geometry" />
        </mxCell>
        <mxCell id="K5Qhf0zq-DthpX8qMDTY-33" style="edgeStyle=orthogonalEdgeStyle;rounded=0;orthogonalLoop=1;jettySize=auto;html=1;exitX=1;exitY=0.25;exitDx=0;exitDy=0;entryX=0;entryY=0.25;entryDx=0;entryDy=0;" parent="Xs9r0mdP92HLTO9vmSDR-1" source="K5Qhf0zq-DthpX8qMDTY-7" target="Xs9r0mdP92HLTO9vmSDR-3" edge="1">
          <mxGeometry relative="1" as="geometry" />
        </mxCell>
        <mxCell id="K5Qhf0zq-DthpX8qMDTY-7" value="SSI Entity Resolver API&lt;br&gt;(DID, Schema, Cred Def,&lt;br&gt;Revocation Reg Def,&lt;br&gt;Revocation Reg Entry)" style="html=1;" parent="Xs9r0mdP92HLTO9vmSDR-1" vertex="1">
          <mxGeometry x="22" y="68" width="150" height="80" as="geometry" />
        </mxCell>
        <mxCell id="K5Qhf0zq-DthpX8qMDTY-8" value="Cache instance" style="html=1;" parent="Xs9r0mdP92HLTO9vmSDR-1" vertex="1">
          <mxGeometry x="22" y="230" width="150" height="80" as="geometry" />
        </mxCell>
        <mxCell id="K5Qhf0zq-DthpX8qMDTY-24" value="Provides default&lt;br&gt;cache&lt;br&gt;implementation" style="text;html=1;align=center;verticalAlign=middle;resizable=0;points=[];autosize=1;strokeColor=none;fillColor=none;" parent="Xs9r0mdP92HLTO9vmSDR-1" vertex="1">
          <mxGeometry x="187" y="214" width="110" height="60" as="geometry" />
        </mxCell>
        <mxCell id="K5Qhf0zq-DthpX8qMDTY-26" value="Provides custom&lt;br&gt;cache&lt;br&gt;implementation&lt;div&gt;(optio&lt;span style=&quot;background-color: initial;&quot;&gt;nal, via config)&lt;/span&gt;&lt;/div&gt;" style="text;html=1;align=center;verticalAlign=middle;resizable=0;points=[];autosize=1;strokeColor=none;fillColor=none;" parent="Xs9r0mdP92HLTO9vmSDR-1" vertex="1">
          <mxGeometry x="91" y="340" width="130" height="70" as="geometry" />
        </mxCell>
        <mxCell id="K5Qhf0zq-DthpX8qMDTY-31" value="Cache entity state&lt;br&gt;+ last update timestamp&lt;br&gt;(if relevant)" style="text;html=1;align=center;verticalAlign=middle;resizable=0;points=[];autosize=1;strokeColor=none;fillColor=none;" parent="Xs9r0mdP92HLTO9vmSDR-1" vertex="1">
          <mxGeometry x="91" y="164" width="150" height="60" as="geometry" />
        </mxCell>
        <mxCell id="K5Qhf0zq-DthpX8qMDTY-28" value="Relevant topic&lt;br&gt;messages" style="text;html=1;align=center;verticalAlign=middle;resizable=0;points=[];autosize=1;strokeColor=none;fillColor=none;" parent="Xs9r0mdP92HLTO9vmSDR-1" vertex="1">
          <mxGeometry x="190" y="124" width="100" height="40" as="geometry" />
        </mxCell>
        <mxCell id="K5Qhf0zq-DthpX8qMDTY-34" value="Query params&lt;br&gt;(including last&lt;br&gt;update timestamp,&lt;br&gt;if provided)" style="text;html=1;align=center;verticalAlign=middle;resizable=0;points=[];autosize=1;strokeColor=none;fillColor=none;" parent="Xs9r0mdP92HLTO9vmSDR-1" vertex="1">
          <mxGeometry x="172" y="20" width="120" height="70" as="geometry" />
        </mxCell>
        <mxCell id="Xs9r0mdP92HLTO9vmSDR-36" value="Topic messages stream" style="text;html=1;align=center;verticalAlign=middle;resizable=0;points=[];autosize=1;strokeColor=none;fillColor=none;" parent="1" vertex="1">
          <mxGeometry x="51" y="1913" width="150" height="30" as="geometry" />
        </mxCell>
        <mxCell id="K5Qhf0zq-DthpX8qMDTY-2" value="" style="edgeStyle=orthogonalEdgeStyle;rounded=0;orthogonalLoop=1;jettySize=auto;html=1;entryX=0;entryY=0.75;entryDx=0;entryDy=0;startArrow=classic;startFill=1;exitX=1;exitY=0.75;exitDx=0;exitDy=0;endArrow=none;endFill=0;" parent="1" source="Xs9r0mdP92HLTO9vmSDR-3" target="K5Qhf0zq-DthpX8qMDTY-1" edge="1">
          <mxGeometry relative="1" as="geometry">
            <mxPoint y="1887" as="sourcePoint" />
            <mxPoint x="259.9999999999998" y="1887" as="targetPoint" />
          </mxGeometry>
        </mxCell>
        <mxCell id="K5Qhf0zq-DthpX8qMDTY-1" value="Hedera &lt;br&gt;mirror node" style="html=1;" parent="1" vertex="1">
          <mxGeometry x="220" y="1858" width="150" height="80" as="geometry" />
        </mxCell>
        <mxCell id="K5Qhf0zq-DthpX8qMDTY-3" style="edgeStyle=orthogonalEdgeStyle;rounded=0;orthogonalLoop=1;jettySize=auto;html=1;exitX=1;exitY=0.25;exitDx=0;exitDy=0;entryX=0;entryY=0.25;entryDx=0;entryDy=0;" parent="1" source="Xs9r0mdP92HLTO9vmSDR-3" target="K5Qhf0zq-DthpX8qMDTY-1" edge="1">
          <mxGeometry relative="1" as="geometry" />
        </mxCell>
        <mxCell id="K5Qhf0zq-DthpX8qMDTY-4" value="Topic messages query&lt;br&gt;(from last update timestamp,&lt;br&gt;if provided)" style="text;html=1;align=center;verticalAlign=middle;resizable=0;points=[];autosize=1;strokeColor=none;fillColor=none;" parent="1" vertex="1">
          <mxGeometry x="36" y="1820" width="180" height="60" as="geometry" />
        </mxCell>
        <mxCell id="K5Qhf0zq-DthpX8qMDTY-25" style="edgeStyle=orthogonalEdgeStyle;rounded=0;orthogonalLoop=1;jettySize=auto;html=1;entryX=0.5;entryY=1;entryDx=0;entryDy=0;" parent="1" source="Xs9r0mdP92HLTO9vmSDR-37" target="K5Qhf0zq-DthpX8qMDTY-8" edge="1">
          <mxGeometry relative="1" as="geometry" />
        </mxCell>
        <mxCell id="Xs9r0mdP92HLTO9vmSDR-37" value="Custom Cache&lt;br&gt;implementation&lt;div&gt;(for example,&lt;br&gt;with Redis storage)&lt;/div&gt;" style="html=1;" parent="1" vertex="1">
          <mxGeometry x="-418" y="2266" width="150" height="80" as="geometry" />
        </mxCell>
        <mxCell id="K5Qhf0zq-DthpX8qMDTY-9" style="edgeStyle=orthogonalEdgeStyle;rounded=0;orthogonalLoop=1;jettySize=auto;html=1;entryX=1;entryY=0.5;entryDx=0;entryDy=0;dashed=1;exitX=0.5;exitY=1;exitDx=0;exitDy=0;startArrow=classic;startFill=1;endArrow=none;endFill=0;" parent="1" source="K5Qhf0zq-DthpX8qMDTY-6" target="Xs9r0mdP92HLTO9vmSDR-37" edge="1">
          <mxGeometry relative="1" as="geometry" />
        </mxCell>
        <mxCell id="K5Qhf0zq-DthpX8qMDTY-20" value="Implements" style="text;html=1;align=center;verticalAlign=middle;resizable=0;points=[];autosize=1;strokeColor=none;fillColor=none;" parent="1" vertex="1">
          <mxGeometry x="-219" y="2280" width="90" height="30" as="geometry" />
        </mxCell>
        <mxCell id="K5Qhf0zq-DthpX8qMDTY-10" value="Implements" style="text;html=1;align=center;verticalAlign=middle;resizable=0;points=[];autosize=1;strokeColor=none;fillColor=none;" parent="1" vertex="1">
          <mxGeometry x="-140" y="2106" width="90" height="30" as="geometry" />
        </mxCell>
      </root>
    </mxGraphModel>
  </diagram>
</mxfile>
